<?xml version="1.0" encoding="UTF-8"?>
<svg id="Layer_1" data-name="Layer 1" xmlns="http://www.w3.org/2000/svg" viewBox="0 0 30 30">
  <defs>
    <style>
      .cls-1 {
        fill: #fff;
      }
    </style>
  </defs>
  <path class="cls-1" d="M30,0v30H0V0h30ZM14.41,3.01C5.5,3.44.13,13.18,4.58,20.97c3.9,6.83,13.35,8.11,18.93,2.53,1.15-1.15.1-2.99-1.42-2.59-.57.15-1.34,1.01-1.87,1.39-6.45,4.6-15.23-.8-14.1-8.62.98-6.76,8.94-9.97,14.38-5.79.44.34.97.96,1.46,1.14,1.54.57,2.76-1.33,1.55-2.54-2.36-2.36-5.75-3.66-9.1-3.5ZM14.59,9c-4.44.29-7.05,5.24-4.75,9.08s7.51,3.94,10.03.45c2.99-4.14-.21-9.87-5.28-9.53Z"/>
  <path d="M14.41,3.01c3.35-.16,6.74,1.13,9.1,3.5,1.21,1.21-.02,3.11-1.55,2.54-.5-.18-1.02-.8-1.46-1.14-5.44-4.19-13.4-.97-14.38,5.79-1.13,7.82,7.65,13.21,14.1,8.62.53-.38,1.3-1.24,1.87-1.39,1.52-.4,2.57,1.43,1.42,2.59-5.58,5.58-15.03,4.3-18.93-2.53C.13,13.18,5.5,3.44,14.41,3.01Z"/>
  <path d="M14.59,9c5.07-.34,8.26,5.39,5.28,9.53-2.52,3.49-7.82,3.24-10.03-.45s.31-8.79,4.75-9.08ZM14.74,12.03c-2.31.2-3.53,2.88-2.13,4.75,1.3,1.74,4,1.55,5.02-.37,1.11-2.09-.53-4.6-2.89-4.39Z"/>
  <path class="cls-1" d="M14.74,12.03c2.36-.21,4,2.3,2.89,4.39-1.02,1.92-3.73,2.11-5.02.37-1.39-1.87-.17-4.55,2.13-4.75Z"/>
</svg>